# xmcd
#
# Track frame offsets:
#	183
#	16458
#	34708
#
# Disc length: 671 seconds
#
# Revision: 0
# Processed by: cddbd v1.5.1PL0 Copyright (c) Steve Scherf et al.
# Submitted via: audiograbber 1.83.01
#
DISCID=1a029d03
DTITLE=John Hiatt - Slow Turning
DYEAR=1988
DGENRE=Blues
TTITLE0=Slow Turning
TTITLE1=Your Dad Did
TTITLE2=It'll Come To You
EXTD=
EXTT0=
EXTT1=
EXTT2=
PLAYORDER=
